<?xml version="1.0" encoding="UTF-8" standalone="no"?>
<!DOCTYPE svg PUBLIC "-//W3C//DTD SVG 1.1//EN"
 "http://www.w3.org/Graphics/SVG/1.1/DTD/svg11.dtd">
<!-- Generated by graphviz version 12.2.0 (20241103.1931)
 -->
<!-- Pages: 1 -->
<svg width="2914pt" height="236pt"
 viewBox="0.00 0.00 2913.50 236.00" xmlns="http://www.w3.org/2000/svg" xmlns:xlink="http://www.w3.org/1999/xlink">
<g id="graph0" class="graph" transform="scale(1 1) rotate(0) translate(4 232)">
<polygon fill="white" stroke="none" points="-4,4 -4,-232 2909.5,-232 2909.5,4 -4,4"/>
<!-- 1713093152784 -->
<g id="node1" class="node">
<title>1713093152784</title>
<polygon fill="none" stroke="black" points="1044.75,-109.5 1044.75,-145.5 1228.5,-145.5 1228.5,-109.5 1044.75,-109.5"/>
<text text-anchor="middle" x="1056.12" y="-122.7" font-family="Times New Roman,serif" font-size="14.00">n</text>
<polyline fill="none" stroke="black" points="1067.5,-110 1067.5,-145.5"/>
<text text-anchor="middle" x="1107.38" y="-122.7" font-family="Times New Roman,serif" font-size="14.00">data 0.8814</text>
<polyline fill="none" stroke="black" points="1147.25,-110 1147.25,-145.5"/>
<text text-anchor="middle" x="1187.88" y="-122.7" font-family="Times New Roman,serif" font-size="14.00">grad 0.5000</text>
</g>
<!-- 1713093152976* -->
<g id="node5" class="node">
<title>1713093152976*</title>
<ellipse fill="none" stroke="black" cx="1291.5" cy="-154.5" rx="27" ry="18"/>
<text text-anchor="middle" x="1291.5" y="-149.45" font-family="Times New Roman,serif" font-size="14.00">*</text>
</g>
<!-- 1713093152784&#45;&gt;1713093152976* -->
<g id="edge26" class="edge">
<title>1713093152784&#45;&gt;1713093152976*</title>
<path fill="none" stroke="black" d="M1228.76,-143.6C1237.59,-145.16 1246.15,-146.67 1253.94,-148.04"/>
<polygon fill="black" stroke="black" points="1253.17,-151.46 1263.63,-149.75 1254.39,-144.57 1253.17,-151.46"/>
</g>
<!-- 1713093152784+ -->
<g id="node2" class="node">
<title>1713093152784+</title>
<ellipse fill="none" stroke="black" cx="981.75" cy="-127.5" rx="27" ry="18"/>
<text text-anchor="middle" x="981.75" y="-122.45" font-family="Times New Roman,serif" font-size="14.00">+</text>
</g>
<!-- 1713093152784+&#45;&gt;1713093152784 -->
<g id="edge1" class="edge">
<title>1713093152784+&#45;&gt;1713093152784</title>
<path fill="none" stroke="black" d="M1009.03,-127.5C1016.17,-127.5 1024.36,-127.5 1033.07,-127.5"/>
<polygon fill="black" stroke="black" points="1032.81,-131 1042.81,-127.5 1032.81,-124 1032.81,-131"/>
</g>
<!-- 1713093152848 -->
<g id="node3" class="node">
<title>1713093152848</title>
<polygon fill="none" stroke="black" points="1046.25,-164.5 1046.25,-200.5 1227,-200.5 1227,-164.5 1046.25,-164.5"/>
<text text-anchor="middle" x="1056.12" y="-177.7" font-family="Times New Roman,serif" font-size="14.00"> </text>
<polyline fill="none" stroke="black" points="1066,-165 1066,-200.5"/>
<text text-anchor="middle" x="1105.88" y="-177.7" font-family="Times New Roman,serif" font-size="14.00">data 2.0000</text>
<polyline fill="none" stroke="black" points="1145.75,-165 1145.75,-200.5"/>
<text text-anchor="middle" x="1186.38" y="-177.7" font-family="Times New Roman,serif" font-size="14.00">grad 0.2203</text>
</g>
<!-- 1713093152848&#45;&gt;1713093152976* -->
<g id="edge29" class="edge">
<title>1713093152848&#45;&gt;1713093152976*</title>
<path fill="none" stroke="black" d="M1227.44,-166.05C1236.69,-164.35 1245.68,-162.71 1253.83,-161.22"/>
<polygon fill="black" stroke="black" points="1254.42,-164.67 1263.62,-159.42 1253.16,-157.78 1254.42,-164.67"/>
</g>
<!-- 1713093152976 -->
<g id="node4" class="node">
<title>1713093152976</title>
<polygon fill="none" stroke="black" points="1356.75,-136.5 1356.75,-172.5 1537.5,-172.5 1537.5,-136.5 1356.75,-136.5"/>
<text text-anchor="middle" x="1366.62" y="-149.7" font-family="Times New Roman,serif" font-size="14.00"> </text>
<polyline fill="none" stroke="black" points="1376.5,-137 1376.5,-172.5"/>
<text text-anchor="middle" x="1416.38" y="-149.7" font-family="Times New Roman,serif" font-size="14.00">data 1.7627</text>
<polyline fill="none" stroke="black" points="1456.25,-137 1456.25,-172.5"/>
<text text-anchor="middle" x="1496.88" y="-149.7" font-family="Times New Roman,serif" font-size="14.00">grad 0.2500</text>
</g>
<!-- 1713093153104exp -->
<g id="node9" class="node">
<title>1713093153104exp</title>
<ellipse fill="none" stroke="black" cx="1602.75" cy="-154.5" rx="27" ry="18"/>
<text text-anchor="middle" x="1602.75" y="-149.45" font-family="Times New Roman,serif" font-size="14.00">exp</text>
</g>
<!-- 1713093152976&#45;&gt;1713093153104exp -->
<g id="edge27" class="edge">
<title>1713093152976&#45;&gt;1713093153104exp</title>
<path fill="none" stroke="black" d="M1537.93,-154.5C1547.11,-154.5 1556.03,-154.5 1564.15,-154.5"/>
<polygon fill="black" stroke="black" points="1563.9,-158 1573.9,-154.5 1563.9,-151 1563.9,-158"/>
</g>
<!-- 1713093152976*&#45;&gt;1713093152976 -->
<g id="edge2" class="edge">
<title>1713093152976*&#45;&gt;1713093152976</title>
<path fill="none" stroke="black" d="M1318.91,-154.5C1326.62,-154.5 1335.54,-154.5 1345.01,-154.5"/>
<polygon fill="black" stroke="black" points="1344.82,-158 1354.82,-154.5 1344.82,-151 1344.82,-158"/>
</g>
<!-- 1713093114128 -->
<g id="node6" class="node">
<title>1713093114128</title>
<polygon fill="none" stroke="black" points="326.25,-110.5 326.25,-146.5 533.25,-146.5 533.25,-110.5 326.25,-110.5"/>
<text text-anchor="middle" x="349.25" y="-123.7" font-family="Times New Roman,serif" font-size="14.00">x2w2</text>
<polyline fill="none" stroke="black" points="372.25,-111 372.25,-146.5"/>
<text text-anchor="middle" x="412.12" y="-123.7" font-family="Times New Roman,serif" font-size="14.00">data 0.0000</text>
<polyline fill="none" stroke="black" points="452,-111 452,-146.5"/>
<text text-anchor="middle" x="492.62" y="-123.7" font-family="Times New Roman,serif" font-size="14.00">grad 0.5000</text>
</g>
<!-- 1713093152720+ -->
<g id="node31" class="node">
<title>1713093152720+</title>
<ellipse fill="none" stroke="black" cx="598.5" cy="-100.5" rx="27" ry="18"/>
<text text-anchor="middle" x="598.5" y="-95.45" font-family="Times New Roman,serif" font-size="14.00">+</text>
</g>
<!-- 1713093114128&#45;&gt;1713093152720+ -->
<g id="edge25" class="edge">
<title>1713093114128&#45;&gt;1713093152720+</title>
<path fill="none" stroke="black" d="M533.51,-111.25C543.16,-109.62 552.45,-108.06 560.82,-106.66"/>
<polygon fill="black" stroke="black" points="561.2,-110.15 570.48,-105.04 560.04,-103.24 561.2,-110.15"/>
</g>
<!-- 1713093114128* -->
<g id="node7" class="node">
<title>1713093114128*</title>
<ellipse fill="none" stroke="black" cx="261" cy="-128.5" rx="27" ry="18"/>
<text text-anchor="middle" x="261" y="-123.45" font-family="Times New Roman,serif" font-size="14.00">*</text>
</g>
<!-- 1713093114128*&#45;&gt;1713093114128 -->
<g id="edge3" class="edge">
<title>1713093114128*&#45;&gt;1713093114128</title>
<path fill="none" stroke="black" d="M288.42,-128.5C296.08,-128.5 304.96,-128.5 314.47,-128.5"/>
<polygon fill="black" stroke="black" points="314.37,-132 324.37,-128.5 314.37,-125 314.37,-132"/>
</g>
<!-- 1713093153104 -->
<g id="node8" class="node">
<title>1713093153104</title>
<polygon fill="none" stroke="black" points="1668,-136.5 1668,-172.5 1848.75,-172.5 1848.75,-136.5 1668,-136.5"/>
<text text-anchor="middle" x="1677.88" y="-149.7" font-family="Times New Roman,serif" font-size="14.00"> </text>
<polyline fill="none" stroke="black" points="1687.75,-137 1687.75,-172.5"/>
<text text-anchor="middle" x="1727.62" y="-149.7" font-family="Times New Roman,serif" font-size="14.00">data 5.8284</text>
<polyline fill="none" stroke="black" points="1767.5,-137 1767.5,-172.5"/>
<text text-anchor="middle" x="1808.12" y="-149.7" font-family="Times New Roman,serif" font-size="14.00">grad 0.0429</text>
</g>
<!-- 1713093153424+ -->
<g id="node16" class="node">
<title>1713093153424+</title>
<ellipse fill="none" stroke="black" cx="1914" cy="-126.5" rx="27" ry="18"/>
<text text-anchor="middle" x="1914" y="-121.45" font-family="Times New Roman,serif" font-size="14.00">+</text>
</g>
<!-- 1713093153104&#45;&gt;1713093153424+ -->
<g id="edge22" class="edge">
<title>1713093153104&#45;&gt;1713093153424+</title>
<path fill="none" stroke="black" d="M1849.18,-138.13C1858.73,-136.39 1868.01,-134.7 1876.39,-133.17"/>
<polygon fill="black" stroke="black" points="1876.89,-136.64 1886.1,-131.4 1875.64,-129.75 1876.89,-136.64"/>
</g>
<!-- 1713093153616+ -->
<g id="node19" class="node">
<title>1713093153616+</title>
<ellipse fill="none" stroke="black" cx="1914" cy="-181.5" rx="27" ry="18"/>
<text text-anchor="middle" x="1914" y="-176.45" font-family="Times New Roman,serif" font-size="14.00">+</text>
</g>
<!-- 1713093153104&#45;&gt;1713093153616+ -->
<g id="edge24" class="edge">
<title>1713093153104&#45;&gt;1713093153616+</title>
<path fill="none" stroke="black" d="M1849.18,-170.28C1858.73,-171.96 1868.01,-173.59 1876.39,-175.07"/>
<polygon fill="black" stroke="black" points="1875.64,-178.49 1886.1,-176.77 1876.86,-171.59 1875.64,-178.49"/>
</g>
<!-- 1713093153104exp&#45;&gt;1713093153104 -->
<g id="edge4" class="edge">
<title>1713093153104exp&#45;&gt;1713093153104</title>
<path fill="none" stroke="black" d="M1630.16,-154.5C1637.87,-154.5 1646.79,-154.5 1656.26,-154.5"/>
<polygon fill="black" stroke="black" points="1656.07,-158 1666.07,-154.5 1656.07,-151 1656.07,-158"/>
</g>
<!-- 1713093153168 -->
<g id="node10" class="node">
<title>1713093153168</title>
<polygon fill="none" stroke="black" points="1354.5,-81.5 1354.5,-117.5 1539.75,-117.5 1539.75,-81.5 1354.5,-81.5"/>
<text text-anchor="middle" x="1364.38" y="-94.7" font-family="Times New Roman,serif" font-size="14.00"> </text>
<polyline fill="none" stroke="black" points="1374.25,-82 1374.25,-117.5"/>
<text text-anchor="middle" x="1414.12" y="-94.7" font-family="Times New Roman,serif" font-size="14.00">data 1.0000</text>
<polyline fill="none" stroke="black" points="1454,-82 1454,-117.5"/>
<text text-anchor="middle" x="1496.88" y="-94.7" font-family="Times New Roman,serif" font-size="14.00">grad &#45;0.1464</text>
</g>
<!-- 1713093153296* -->
<g id="node14" class="node">
<title>1713093153296*</title>
<ellipse fill="none" stroke="black" cx="1602.75" cy="-99.5" rx="27" ry="18"/>
<text text-anchor="middle" x="1602.75" y="-94.45" font-family="Times New Roman,serif" font-size="14.00">*</text>
</g>
<!-- 1713093153168&#45;&gt;1713093153296* -->
<g id="edge17" class="edge">
<title>1713093153168&#45;&gt;1713093153296*</title>
<path fill="none" stroke="black" d="M1540.15,-99.5C1548.52,-99.5 1556.64,-99.5 1564.09,-99.5"/>
<polygon fill="black" stroke="black" points="1564.03,-103 1574.03,-99.5 1564.03,-96 1564.03,-103"/>
</g>
<!-- 1713085174224 -->
<g id="node11" class="node">
<title>1713085174224</title>
<polygon fill="none" stroke="black" points="2.25,-165.5 2.25,-201.5 195.75,-201.5 195.75,-165.5 2.25,-165.5"/>
<text text-anchor="middle" x="18.5" y="-178.7" font-family="Times New Roman,serif" font-size="14.00">w2</text>
<polyline fill="none" stroke="black" points="34.75,-166 34.75,-201.5"/>
<text text-anchor="middle" x="74.62" y="-178.7" font-family="Times New Roman,serif" font-size="14.00">data 1.0000</text>
<polyline fill="none" stroke="black" points="114.5,-166 114.5,-201.5"/>
<text text-anchor="middle" x="155.12" y="-178.7" font-family="Times New Roman,serif" font-size="14.00">grad 0.0000</text>
</g>
<!-- 1713085174224&#45;&gt;1713093114128* -->
<g id="edge31" class="edge">
<title>1713085174224&#45;&gt;1713093114128*</title>
<path fill="none" stroke="black" d="M172.12,-165.01C180.9,-162.35 189.7,-159.5 198,-156.5 208.09,-152.86 218.82,-148.27 228.47,-143.88"/>
<polygon fill="black" stroke="black" points="229.86,-147.09 237.45,-139.69 226.9,-140.75 229.86,-147.09"/>
</g>
<!-- 1713093153232 -->
<g id="node12" class="node">
<title>1713093153232</title>
<polygon fill="none" stroke="black" points="1354.5,-26.5 1354.5,-62.5 1539.75,-62.5 1539.75,-26.5 1354.5,-26.5"/>
<text text-anchor="middle" x="1364.38" y="-39.7" font-family="Times New Roman,serif" font-size="14.00"> </text>
<polyline fill="none" stroke="black" points="1374.25,-27 1374.25,-62.5"/>
<text text-anchor="middle" x="1416.38" y="-39.7" font-family="Times New Roman,serif" font-size="14.00">data &#45;1.0000</text>
<polyline fill="none" stroke="black" points="1458.5,-27 1458.5,-62.5"/>
<text text-anchor="middle" x="1499.12" y="-39.7" font-family="Times New Roman,serif" font-size="14.00">grad 0.1464</text>
</g>
<!-- 1713093153232&#45;&gt;1713093153296* -->
<g id="edge20" class="edge">
<title>1713093153232&#45;&gt;1713093153296*</title>
<path fill="none" stroke="black" d="M1511.53,-62.84C1521.05,-65.89 1530.7,-69.16 1539.75,-72.5 1549.59,-76.13 1560.12,-80.52 1569.65,-84.69"/>
<polygon fill="black" stroke="black" points="1567.96,-87.77 1578.52,-88.64 1570.81,-81.38 1567.96,-87.77"/>
</g>
<!-- 1713093153296 -->
<g id="node13" class="node">
<title>1713093153296</title>
<polygon fill="none" stroke="black" points="1665.75,-81.5 1665.75,-117.5 1851,-117.5 1851,-81.5 1665.75,-81.5"/>
<text text-anchor="middle" x="1675.62" y="-94.7" font-family="Times New Roman,serif" font-size="14.00"> </text>
<polyline fill="none" stroke="black" points="1685.5,-82 1685.5,-117.5"/>
<text text-anchor="middle" x="1727.62" y="-94.7" font-family="Times New Roman,serif" font-size="14.00">data &#45;1.0000</text>
<polyline fill="none" stroke="black" points="1769.75,-82 1769.75,-117.5"/>
<text text-anchor="middle" x="1810.38" y="-94.7" font-family="Times New Roman,serif" font-size="14.00">grad 0.1464</text>
</g>
<!-- 1713093153296&#45;&gt;1713093153424+ -->
<g id="edge15" class="edge">
<title>1713093153296&#45;&gt;1713093153424+</title>
<path fill="none" stroke="black" d="M1851.4,-115.67C1860.14,-117.21 1868.61,-118.7 1876.33,-120.05"/>
<polygon fill="black" stroke="black" points="1875.45,-123.45 1885.91,-121.74 1876.66,-116.56 1875.45,-123.45"/>
</g>
<!-- 1713093153296*&#45;&gt;1713093153296 -->
<g id="edge5" class="edge">
<title>1713093153296*&#45;&gt;1713093153296</title>
<path fill="none" stroke="black" d="M1630.16,-99.5C1637.2,-99.5 1645.25,-99.5 1653.8,-99.5"/>
<polygon fill="black" stroke="black" points="1653.79,-103 1663.79,-99.5 1653.79,-96 1653.79,-103"/>
</g>
<!-- 1713093153424 -->
<g id="node15" class="node">
<title>1713093153424</title>
<polygon fill="none" stroke="black" points="2198.25,-108.5 2198.25,-144.5 2379,-144.5 2379,-108.5 2198.25,-108.5"/>
<text text-anchor="middle" x="2208.12" y="-121.7" font-family="Times New Roman,serif" font-size="14.00"> </text>
<polyline fill="none" stroke="black" points="2218,-109 2218,-144.5"/>
<text text-anchor="middle" x="2257.88" y="-121.7" font-family="Times New Roman,serif" font-size="14.00">data 4.8284</text>
<polyline fill="none" stroke="black" points="2297.75,-109 2297.75,-144.5"/>
<text text-anchor="middle" x="2338.38" y="-121.7" font-family="Times New Roman,serif" font-size="14.00">grad 0.1464</text>
</g>
<!-- 1713093153936* -->
<g id="node25" class="node">
<title>1713093153936*</title>
<ellipse fill="none" stroke="black" cx="2658.75" cy="-153.5" rx="27" ry="18"/>
<text text-anchor="middle" x="2658.75" y="-148.45" font-family="Times New Roman,serif" font-size="14.00">*</text>
</g>
<!-- 1713093153424&#45;&gt;1713093153936* -->
<g id="edge30" class="edge">
<title>1713093153424&#45;&gt;1713093153936*</title>
<path fill="none" stroke="black" d="M2379.21,-133.07C2456.5,-138.74 2564.28,-146.64 2620.42,-150.76"/>
<polygon fill="black" stroke="black" points="2619.84,-154.23 2630.07,-151.47 2620.35,-147.25 2619.84,-154.23"/>
</g>
<!-- 1713093153424+&#45;&gt;1713093153424 -->
<g id="edge6" class="edge">
<title>1713093153424+&#45;&gt;1713093153424</title>
<path fill="none" stroke="black" d="M1941.5,-126.5C1991.76,-126.5 2103.32,-126.5 2186.28,-126.5"/>
<polygon fill="black" stroke="black" points="2186.27,-130 2196.27,-126.5 2186.27,-123 2186.27,-130"/>
</g>
<!-- 1713093153488 -->
<g id="node17" class="node">
<title>1713093153488</title>
<polygon fill="none" stroke="black" points="1665.75,-191.5 1665.75,-227.5 1851,-227.5 1851,-191.5 1665.75,-191.5"/>
<text text-anchor="middle" x="1675.62" y="-204.7" font-family="Times New Roman,serif" font-size="14.00"> </text>
<polyline fill="none" stroke="black" points="1685.5,-192 1685.5,-227.5"/>
<text text-anchor="middle" x="1725.38" y="-204.7" font-family="Times New Roman,serif" font-size="14.00">data 1.0000</text>
<polyline fill="none" stroke="black" points="1765.25,-192 1765.25,-227.5"/>
<text text-anchor="middle" x="1808.12" y="-204.7" font-family="Times New Roman,serif" font-size="14.00">grad &#45;0.1036</text>
</g>
<!-- 1713093153488&#45;&gt;1713093153616+ -->
<g id="edge23" class="edge">
<title>1713093153488&#45;&gt;1713093153616+</title>
<path fill="none" stroke="black" d="M1851.4,-192.73C1860.14,-191.13 1868.61,-189.59 1876.33,-188.18"/>
<polygon fill="black" stroke="black" points="1876.7,-191.67 1885.91,-186.44 1875.44,-184.79 1876.7,-191.67"/>
</g>
<!-- 1713093153616 -->
<g id="node18" class="node">
<title>1713093153616</title>
<polygon fill="none" stroke="black" points="1977,-163.5 1977,-199.5 2162.25,-199.5 2162.25,-163.5 1977,-163.5"/>
<text text-anchor="middle" x="1986.88" y="-176.7" font-family="Times New Roman,serif" font-size="14.00"> </text>
<polyline fill="none" stroke="black" points="1996.75,-164 1996.75,-199.5"/>
<text text-anchor="middle" x="2036.62" y="-176.7" font-family="Times New Roman,serif" font-size="14.00">data 6.8284</text>
<polyline fill="none" stroke="black" points="2076.5,-164 2076.5,-199.5"/>
<text text-anchor="middle" x="2119.38" y="-176.7" font-family="Times New Roman,serif" font-size="14.00">grad &#45;0.1036</text>
</g>
<!-- 1713093153808**&#45;1 -->
<g id="node21" class="node">
<title>1713093153808**&#45;1</title>
<ellipse fill="none" stroke="black" cx="2288.62" cy="-181.5" rx="27.81" ry="18"/>
<text text-anchor="middle" x="2288.62" y="-176.45" font-family="Times New Roman,serif" font-size="14.00">**&#45;1</text>
</g>
<!-- 1713093153616&#45;&gt;1713093153808**&#45;1 -->
<g id="edge12" class="edge">
<title>1713093153616&#45;&gt;1713093153808**&#45;1</title>
<path fill="none" stroke="black" d="M2162.65,-181.5C2192.89,-181.5 2224.88,-181.5 2248.92,-181.5"/>
<polygon fill="black" stroke="black" points="2248.87,-185 2258.87,-181.5 2248.87,-178 2248.87,-185"/>
</g>
<!-- 1713093153616+&#45;&gt;1713093153616 -->
<g id="edge7" class="edge">
<title>1713093153616+&#45;&gt;1713093153616</title>
<path fill="none" stroke="black" d="M1941.41,-181.5C1948.45,-181.5 1956.5,-181.5 1965.05,-181.5"/>
<polygon fill="black" stroke="black" points="1965.04,-185 1975.04,-181.5 1965.04,-178 1965.04,-185"/>
</g>
<!-- 1713093153808 -->
<g id="node20" class="node">
<title>1713093153808</title>
<polygon fill="none" stroke="black" points="2415,-161.5 2415,-197.5 2595.75,-197.5 2595.75,-161.5 2415,-161.5"/>
<text text-anchor="middle" x="2424.88" y="-174.7" font-family="Times New Roman,serif" font-size="14.00"> </text>
<polyline fill="none" stroke="black" points="2434.75,-162 2434.75,-197.5"/>
<text text-anchor="middle" x="2474.62" y="-174.7" font-family="Times New Roman,serif" font-size="14.00">data 0.1464</text>
<polyline fill="none" stroke="black" points="2514.5,-162 2514.5,-197.5"/>
<text text-anchor="middle" x="2555.12" y="-174.7" font-family="Times New Roman,serif" font-size="14.00">grad 4.8284</text>
</g>
<!-- 1713093153808&#45;&gt;1713093153936* -->
<g id="edge13" class="edge">
<title>1713093153808&#45;&gt;1713093153936*</title>
<path fill="none" stroke="black" d="M2596.18,-164.08C2604.79,-162.6 2613.14,-161.16 2620.78,-159.85"/>
<polygon fill="black" stroke="black" points="2621.36,-163.3 2630.62,-158.16 2620.17,-156.4 2621.36,-163.3"/>
</g>
<!-- 1713093153808**&#45;1&#45;&gt;1713093153808 -->
<g id="edge8" class="edge">
<title>1713093153808**&#45;1&#45;&gt;1713093153808</title>
<path fill="none" stroke="black" d="M2316.82,-181.25C2338.93,-181.04 2371.58,-180.74 2403.47,-180.44"/>
<polygon fill="black" stroke="black" points="2403.21,-183.94 2413.18,-180.35 2403.15,-176.94 2403.21,-183.94"/>
</g>
<!-- 1713085170704 -->
<g id="node22" class="node">
<title>1713085170704</title>
<polygon fill="none" stroke="black" points="0,-55.5 0,-91.5 198,-91.5 198,-55.5 0,-55.5"/>
<text text-anchor="middle" x="16.25" y="-68.7" font-family="Times New Roman,serif" font-size="14.00">w1</text>
<polyline fill="none" stroke="black" points="32.5,-56 32.5,-91.5"/>
<text text-anchor="middle" x="74.62" y="-68.7" font-family="Times New Roman,serif" font-size="14.00">data &#45;3.0000</text>
<polyline fill="none" stroke="black" points="116.75,-56 116.75,-91.5"/>
<text text-anchor="middle" x="157.38" y="-68.7" font-family="Times New Roman,serif" font-size="14.00">grad 1.0000</text>
</g>
<!-- 1713093103376* -->
<g id="node29" class="node">
<title>1713093103376*</title>
<ellipse fill="none" stroke="black" cx="261" cy="-73.5" rx="27" ry="18"/>
<text text-anchor="middle" x="261" y="-68.45" font-family="Times New Roman,serif" font-size="14.00">*</text>
</g>
<!-- 1713085170704&#45;&gt;1713093103376* -->
<g id="edge16" class="edge">
<title>1713085170704&#45;&gt;1713093103376*</title>
<path fill="none" stroke="black" d="M198.14,-73.5C206.61,-73.5 214.8,-73.5 222.29,-73.5"/>
<polygon fill="black" stroke="black" points="222.29,-77 232.29,-73.5 222.29,-70 222.29,-77"/>
</g>
<!-- 1713092971536 -->
<g id="node23" class="node">
<title>1713092971536</title>
<polygon fill="none" stroke="black" points="1.5,-0.5 1.5,-36.5 196.5,-36.5 196.5,-0.5 1.5,-0.5"/>
<text text-anchor="middle" x="16.25" y="-13.7" font-family="Times New Roman,serif" font-size="14.00">x1</text>
<polyline fill="none" stroke="black" points="31,-1 31,-36.5"/>
<text text-anchor="middle" x="70.88" y="-13.7" font-family="Times New Roman,serif" font-size="14.00">data 2.0000</text>
<polyline fill="none" stroke="black" points="110.75,-1 110.75,-36.5"/>
<text text-anchor="middle" x="153.62" y="-13.7" font-family="Times New Roman,serif" font-size="14.00">grad &#45;1.5000</text>
</g>
<!-- 1713092971536&#45;&gt;1713093103376* -->
<g id="edge28" class="edge">
<title>1713092971536&#45;&gt;1713093103376*</title>
<path fill="none" stroke="black" d="M168.91,-36.94C178.74,-39.93 188.67,-43.15 198,-46.5 207.96,-50.07 218.58,-54.47 228.18,-58.68"/>
<polygon fill="black" stroke="black" points="226.54,-61.78 237.1,-62.67 229.4,-55.39 226.54,-61.78"/>
</g>
<!-- 1713093153936 -->
<g id="node24" class="node">
<title>1713093153936</title>
<polygon fill="none" stroke="black" points="2721.75,-135.5 2721.75,-171.5 2905.5,-171.5 2905.5,-135.5 2721.75,-135.5"/>
<text text-anchor="middle" x="2733.12" y="-148.7" font-family="Times New Roman,serif" font-size="14.00">o</text>
<polyline fill="none" stroke="black" points="2744.5,-136 2744.5,-171.5"/>
<text text-anchor="middle" x="2784.38" y="-148.7" font-family="Times New Roman,serif" font-size="14.00">data 0.7071</text>
<polyline fill="none" stroke="black" points="2824.25,-136 2824.25,-171.5"/>
<text text-anchor="middle" x="2864.88" y="-148.7" font-family="Times New Roman,serif" font-size="14.00">grad 1.0000</text>
</g>
<!-- 1713093153936*&#45;&gt;1713093153936 -->
<g id="edge9" class="edge">
<title>1713093153936*&#45;&gt;1713093153936</title>
<path fill="none" stroke="black" d="M2686.03,-153.5C2693.17,-153.5 2701.36,-153.5 2710.07,-153.5"/>
<polygon fill="black" stroke="black" points="2709.81,-157 2719.81,-153.5 2709.81,-150 2709.81,-157"/>
</g>
<!-- 1713085170832 -->
<g id="node26" class="node">
<title>1713085170832</title>
<polygon fill="none" stroke="black" points="698.25,-137.5 698.25,-173.5 882,-173.5 882,-137.5 698.25,-137.5"/>
<text text-anchor="middle" x="709.62" y="-150.7" font-family="Times New Roman,serif" font-size="14.00">b</text>
<polyline fill="none" stroke="black" points="721,-138 721,-173.5"/>
<text text-anchor="middle" x="760.88" y="-150.7" font-family="Times New Roman,serif" font-size="14.00">data 6.8814</text>
<polyline fill="none" stroke="black" points="800.75,-138 800.75,-173.5"/>
<text text-anchor="middle" x="841.38" y="-150.7" font-family="Times New Roman,serif" font-size="14.00">grad 0.5000</text>
</g>
<!-- 1713085170832&#45;&gt;1713093152784+ -->
<g id="edge18" class="edge">
<title>1713085170832&#45;&gt;1713093152784+</title>
<path fill="none" stroke="black" d="M882.33,-142.03C904.17,-138.81 926.27,-135.54 943.98,-132.93"/>
<polygon fill="black" stroke="black" points="944.33,-136.42 953.71,-131.49 943.31,-129.49 944.33,-136.42"/>
</g>
<!-- 1713085101520 -->
<g id="node27" class="node">
<title>1713085101520</title>
<polygon fill="none" stroke="black" points="3.75,-110.5 3.75,-146.5 194.25,-146.5 194.25,-110.5 3.75,-110.5"/>
<text text-anchor="middle" x="18.5" y="-123.7" font-family="Times New Roman,serif" font-size="14.00">x2</text>
<polyline fill="none" stroke="black" points="33.25,-111 33.25,-146.5"/>
<text text-anchor="middle" x="73.12" y="-123.7" font-family="Times New Roman,serif" font-size="14.00">data 0.0000</text>
<polyline fill="none" stroke="black" points="113,-111 113,-146.5"/>
<text text-anchor="middle" x="153.62" y="-123.7" font-family="Times New Roman,serif" font-size="14.00">grad 0.5000</text>
</g>
<!-- 1713085101520&#45;&gt;1713093114128* -->
<g id="edge21" class="edge">
<title>1713085101520&#45;&gt;1713093114128*</title>
<path fill="none" stroke="black" d="M194.46,-128.5C204.21,-128.5 213.66,-128.5 222.21,-128.5"/>
<polygon fill="black" stroke="black" points="222.12,-132 232.12,-128.5 222.12,-125 222.12,-132"/>
</g>
<!-- 1713093103376 -->
<g id="node28" class="node">
<title>1713093103376</title>
<polygon fill="none" stroke="black" points="324,-55.5 324,-91.5 535.5,-91.5 535.5,-55.5 324,-55.5"/>
<text text-anchor="middle" x="347" y="-68.7" font-family="Times New Roman,serif" font-size="14.00">x1w1</text>
<polyline fill="none" stroke="black" points="370,-56 370,-91.5"/>
<text text-anchor="middle" x="412.12" y="-68.7" font-family="Times New Roman,serif" font-size="14.00">data &#45;6.0000</text>
<polyline fill="none" stroke="black" points="454.25,-56 454.25,-91.5"/>
<text text-anchor="middle" x="494.88" y="-68.7" font-family="Times New Roman,serif" font-size="14.00">grad 0.5000</text>
</g>
<!-- 1713093103376&#45;&gt;1713093152720+ -->
<g id="edge14" class="edge">
<title>1713093103376&#45;&gt;1713093152720+</title>
<path fill="none" stroke="black" d="M535.88,-90.52C544.59,-91.93 552.96,-93.29 560.56,-94.52"/>
<polygon fill="black" stroke="black" points="559.91,-97.96 570.34,-96.1 561.03,-91.05 559.91,-97.96"/>
</g>
<!-- 1713093103376*&#45;&gt;1713093103376 -->
<g id="edge10" class="edge">
<title>1713093103376*&#45;&gt;1713093103376</title>
<path fill="none" stroke="black" d="M288.42,-73.5C295.52,-73.5 303.68,-73.5 312.42,-73.5"/>
<polygon fill="black" stroke="black" points="312.24,-77 322.24,-73.5 312.24,-70 312.24,-77"/>
</g>
<!-- 1713093152720 -->
<g id="node30" class="node">
<title>1713093152720</title>
<polygon fill="none" stroke="black" points="661.5,-82.5 661.5,-118.5 918.75,-118.5 918.75,-82.5 661.5,-82.5"/>
<text text-anchor="middle" x="707.38" y="-95.7" font-family="Times New Roman,serif" font-size="14.00">x1w1 + x2w2</text>
<polyline fill="none" stroke="black" points="753.25,-83 753.25,-118.5"/>
<text text-anchor="middle" x="795.38" y="-95.7" font-family="Times New Roman,serif" font-size="14.00">data &#45;6.0000</text>
<polyline fill="none" stroke="black" points="837.5,-83 837.5,-118.5"/>
<text text-anchor="middle" x="878.12" y="-95.7" font-family="Times New Roman,serif" font-size="14.00">grad 0.5000</text>
</g>
<!-- 1713093152720&#45;&gt;1713093152784+ -->
<g id="edge19" class="edge">
<title>1713093152720&#45;&gt;1713093152784+</title>
<path fill="none" stroke="black" d="M919.18,-118.73C927.81,-119.96 936.02,-121.13 943.46,-122.19"/>
<polygon fill="black" stroke="black" points="942.96,-125.65 953.35,-123.6 943.94,-118.72 942.96,-125.65"/>
</g>
<!-- 1713093152720+&#45;&gt;1713093152720 -->
<g id="edge11" class="edge">
<title>1713093152720+&#45;&gt;1713093152720</title>
<path fill="none" stroke="black" d="M625.87,-100.5C632.88,-100.5 640.96,-100.5 649.7,-100.5"/>
<polygon fill="black" stroke="black" points="649.57,-104 659.57,-100.5 649.57,-97 649.57,-104"/>
</g>
</g>
</svg>
