<?xml version="1.0" encoding="UTF-8" standalone="no"?>
<!DOCTYPE svg PUBLIC "-//W3C//DTD SVG 1.1//EN"
 "http://www.w3.org/Graphics/SVG/1.1/DTD/svg11.dtd">
<!-- Generated by graphviz version 12.2.0 (20241103.1931)
 -->
<!-- Pages: 1 -->
<svg width="2914pt" height="239pt"
 viewBox="0.00 0.00 2913.50 239.00" xmlns="http://www.w3.org/2000/svg" xmlns:xlink="http://www.w3.org/1999/xlink">
<g id="graph0" class="graph" transform="scale(1 1) rotate(0) translate(4 235)">
<polygon fill="white" stroke="none" points="-4,4 -4,-235 2909.5,-235 2909.5,4 -4,4"/>
<!-- 1438076313888 -->
<g id="node1" class="node">
<title>1438076313888</title>
<polygon fill="none" stroke="black" points="1.5,-194.5 1.5,-230.5 196.5,-230.5 196.5,-194.5 1.5,-194.5"/>
<text text-anchor="middle" x="16.25" y="-207.7" font-family="Times New Roman,serif" font-size="14.00">x1</text>
<polyline fill="none" stroke="black" points="31,-195 31,-230.5"/>
<text text-anchor="middle" x="70.88" y="-207.7" font-family="Times New Roman,serif" font-size="14.00">data 2.0000</text>
<polyline fill="none" stroke="black" points="110.75,-195 110.75,-230.5"/>
<text text-anchor="middle" x="153.62" y="-207.7" font-family="Times New Roman,serif" font-size="14.00">grad &#45;1.5000</text>
</g>
<!-- 1438068469648* -->
<g id="node31" class="node">
<title>1438068469648*</title>
<ellipse fill="none" stroke="black" cx="261" cy="-157.5" rx="27" ry="18"/>
<text text-anchor="middle" x="261" y="-152.45" font-family="Times New Roman,serif" font-size="14.00">*</text>
</g>
<!-- 1438076313888&#45;&gt;1438068469648* -->
<g id="edge22" class="edge">
<title>1438076313888&#45;&gt;1438068469648*</title>
<path fill="none" stroke="black" d="M172.12,-194.01C180.9,-191.35 189.7,-188.5 198,-185.5 208.09,-181.86 218.82,-177.27 228.47,-172.88"/>
<polygon fill="black" stroke="black" points="229.86,-176.09 237.45,-168.69 226.9,-169.75 229.86,-176.09"/>
</g>
<!-- 1438103607728 -->
<g id="node2" class="node">
<title>1438103607728</title>
<polygon fill="none" stroke="black" points="1354.5,-110.5 1354.5,-146.5 1539.75,-146.5 1539.75,-110.5 1354.5,-110.5"/>
<text text-anchor="middle" x="1364.38" y="-123.7" font-family="Times New Roman,serif" font-size="14.00"> </text>
<polyline fill="none" stroke="black" points="1374.25,-111 1374.25,-146.5"/>
<text text-anchor="middle" x="1414.12" y="-123.7" font-family="Times New Roman,serif" font-size="14.00">data 1.0000</text>
<polyline fill="none" stroke="black" points="1454,-111 1454,-146.5"/>
<text text-anchor="middle" x="1496.88" y="-123.7" font-family="Times New Roman,serif" font-size="14.00">grad &#45;0.1464</text>
</g>
<!-- 1438069007584* -->
<g id="node18" class="node">
<title>1438069007584*</title>
<ellipse fill="none" stroke="black" cx="1602.75" cy="-128.5" rx="27" ry="18"/>
<text text-anchor="middle" x="1602.75" y="-123.45" font-family="Times New Roman,serif" font-size="14.00">*</text>
</g>
<!-- 1438103607728&#45;&gt;1438069007584* -->
<g id="edge30" class="edge">
<title>1438103607728&#45;&gt;1438069007584*</title>
<path fill="none" stroke="black" d="M1540.15,-128.5C1548.52,-128.5 1556.64,-128.5 1564.09,-128.5"/>
<polygon fill="black" stroke="black" points="1564.03,-132 1574.03,-128.5 1564.03,-125 1564.03,-132"/>
</g>
<!-- 1438077197024 -->
<g id="node3" class="node">
<title>1438077197024</title>
<polygon fill="none" stroke="black" points="661.5,-111.5 661.5,-147.5 918.75,-147.5 918.75,-111.5 661.5,-111.5"/>
<text text-anchor="middle" x="707.38" y="-124.7" font-family="Times New Roman,serif" font-size="14.00">x1w1 + x2w2</text>
<polyline fill="none" stroke="black" points="753.25,-112 753.25,-147.5"/>
<text text-anchor="middle" x="795.38" y="-124.7" font-family="Times New Roman,serif" font-size="14.00">data &#45;6.0000</text>
<polyline fill="none" stroke="black" points="837.5,-112 837.5,-147.5"/>
<text text-anchor="middle" x="878.12" y="-124.7" font-family="Times New Roman,serif" font-size="14.00">grad 0.5000</text>
</g>
<!-- 1438070778704+ -->
<g id="node8" class="node">
<title>1438070778704+</title>
<ellipse fill="none" stroke="black" cx="981.75" cy="-101.5" rx="27" ry="18"/>
<text text-anchor="middle" x="981.75" y="-96.45" font-family="Times New Roman,serif" font-size="14.00">+</text>
</g>
<!-- 1438077197024&#45;&gt;1438070778704+ -->
<g id="edge25" class="edge">
<title>1438077197024&#45;&gt;1438070778704+</title>
<path fill="none" stroke="black" d="M916.29,-111.02C926.15,-109.56 935.53,-108.18 943.92,-106.94"/>
<polygon fill="black" stroke="black" points="944.19,-110.44 953.58,-105.51 943.17,-103.51 944.19,-110.44"/>
</g>
<!-- 1438077197024+ -->
<g id="node4" class="node">
<title>1438077197024+</title>
<ellipse fill="none" stroke="black" cx="598.5" cy="-129.5" rx="27" ry="18"/>
<text text-anchor="middle" x="598.5" y="-124.45" font-family="Times New Roman,serif" font-size="14.00">+</text>
</g>
<!-- 1438077197024+&#45;&gt;1438077197024 -->
<g id="edge1" class="edge">
<title>1438077197024+&#45;&gt;1438077197024</title>
<path fill="none" stroke="black" d="M625.87,-129.5C632.88,-129.5 640.96,-129.5 649.7,-129.5"/>
<polygon fill="black" stroke="black" points="649.57,-133 659.57,-129.5 649.57,-126 649.57,-133"/>
</g>
<!-- 1438077670160 -->
<g id="node5" class="node">
<title>1438077670160</title>
<polygon fill="none" stroke="black" points="1668,-55.5 1668,-91.5 1848.75,-91.5 1848.75,-55.5 1668,-55.5"/>
<text text-anchor="middle" x="1677.88" y="-68.7" font-family="Times New Roman,serif" font-size="14.00"> </text>
<polyline fill="none" stroke="black" points="1687.75,-56 1687.75,-91.5"/>
<text text-anchor="middle" x="1727.62" y="-68.7" font-family="Times New Roman,serif" font-size="14.00">data 5.8284</text>
<polyline fill="none" stroke="black" points="1767.5,-56 1767.5,-91.5"/>
<text text-anchor="middle" x="1808.12" y="-68.7" font-family="Times New Roman,serif" font-size="14.00">grad 0.0429</text>
</g>
<!-- 1438077586320+ -->
<g id="node11" class="node">
<title>1438077586320+</title>
<ellipse fill="none" stroke="black" cx="1914" cy="-100.5" rx="27" ry="18"/>
<text text-anchor="middle" x="1914" y="-95.45" font-family="Times New Roman,serif" font-size="14.00">+</text>
</g>
<!-- 1438077670160&#45;&gt;1438077586320+ -->
<g id="edge28" class="edge">
<title>1438077670160&#45;&gt;1438077586320+</title>
<path fill="none" stroke="black" d="M1849.18,-89.28C1858.73,-90.96 1868.01,-92.59 1876.39,-94.07"/>
<polygon fill="black" stroke="black" points="1875.64,-97.49 1886.1,-95.77 1876.86,-90.59 1875.64,-97.49"/>
</g>
<!-- 1438103570224+ -->
<g id="node26" class="node">
<title>1438103570224+</title>
<ellipse fill="none" stroke="black" cx="1914" cy="-45.5" rx="27" ry="18"/>
<text text-anchor="middle" x="1914" y="-40.45" font-family="Times New Roman,serif" font-size="14.00">+</text>
</g>
<!-- 1438077670160&#45;&gt;1438103570224+ -->
<g id="edge17" class="edge">
<title>1438077670160&#45;&gt;1438103570224+</title>
<path fill="none" stroke="black" d="M1849.18,-57.13C1858.73,-55.39 1868.01,-53.7 1876.39,-52.17"/>
<polygon fill="black" stroke="black" points="1876.89,-55.64 1886.1,-50.4 1875.64,-48.75 1876.89,-55.64"/>
</g>
<!-- 1438077670160exp -->
<g id="node6" class="node">
<title>1438077670160exp</title>
<ellipse fill="none" stroke="black" cx="1602.75" cy="-73.5" rx="27" ry="18"/>
<text text-anchor="middle" x="1602.75" y="-68.45" font-family="Times New Roman,serif" font-size="14.00">exp</text>
</g>
<!-- 1438077670160exp&#45;&gt;1438077670160 -->
<g id="edge2" class="edge">
<title>1438077670160exp&#45;&gt;1438077670160</title>
<path fill="none" stroke="black" d="M1630.16,-73.5C1637.87,-73.5 1646.79,-73.5 1656.26,-73.5"/>
<polygon fill="black" stroke="black" points="1656.07,-77 1666.07,-73.5 1656.07,-70 1656.07,-77"/>
</g>
<!-- 1438070778704 -->
<g id="node7" class="node">
<title>1438070778704</title>
<polygon fill="none" stroke="black" points="1044.75,-83.5 1044.75,-119.5 1228.5,-119.5 1228.5,-83.5 1044.75,-83.5"/>
<text text-anchor="middle" x="1056.12" y="-96.7" font-family="Times New Roman,serif" font-size="14.00">n</text>
<polyline fill="none" stroke="black" points="1067.5,-84 1067.5,-119.5"/>
<text text-anchor="middle" x="1107.38" y="-96.7" font-family="Times New Roman,serif" font-size="14.00">data 0.8814</text>
<polyline fill="none" stroke="black" points="1147.25,-84 1147.25,-119.5"/>
<text text-anchor="middle" x="1187.88" y="-96.7" font-family="Times New Roman,serif" font-size="14.00">grad 0.5000</text>
</g>
<!-- 1438068686624* -->
<g id="node24" class="node">
<title>1438068686624*</title>
<ellipse fill="none" stroke="black" cx="1291.5" cy="-73.5" rx="27" ry="18"/>
<text text-anchor="middle" x="1291.5" y="-68.45" font-family="Times New Roman,serif" font-size="14.00">*</text>
</g>
<!-- 1438070778704&#45;&gt;1438068686624* -->
<g id="edge13" class="edge">
<title>1438070778704&#45;&gt;1438068686624*</title>
<path fill="none" stroke="black" d="M1228.76,-84.81C1237.59,-83.19 1246.15,-81.62 1253.94,-80.2"/>
<polygon fill="black" stroke="black" points="1254.42,-83.67 1263.63,-78.42 1253.16,-76.78 1254.42,-83.67"/>
</g>
<!-- 1438070778704+&#45;&gt;1438070778704 -->
<g id="edge3" class="edge">
<title>1438070778704+&#45;&gt;1438070778704</title>
<path fill="none" stroke="black" d="M1009.03,-101.5C1016.17,-101.5 1024.36,-101.5 1033.07,-101.5"/>
<polygon fill="black" stroke="black" points="1032.81,-105 1042.81,-101.5 1032.81,-98 1032.81,-105"/>
</g>
<!-- 1438103608176 -->
<g id="node9" class="node">
<title>1438103608176</title>
<polygon fill="none" stroke="black" points="1354.5,-165.5 1354.5,-201.5 1539.75,-201.5 1539.75,-165.5 1354.5,-165.5"/>
<text text-anchor="middle" x="1364.38" y="-178.7" font-family="Times New Roman,serif" font-size="14.00"> </text>
<polyline fill="none" stroke="black" points="1374.25,-166 1374.25,-201.5"/>
<text text-anchor="middle" x="1416.38" y="-178.7" font-family="Times New Roman,serif" font-size="14.00">data &#45;1.0000</text>
<polyline fill="none" stroke="black" points="1458.5,-166 1458.5,-201.5"/>
<text text-anchor="middle" x="1499.12" y="-178.7" font-family="Times New Roman,serif" font-size="14.00">grad 0.1464</text>
</g>
<!-- 1438103608176&#45;&gt;1438069007584* -->
<g id="edge15" class="edge">
<title>1438103608176&#45;&gt;1438069007584*</title>
<path fill="none" stroke="black" d="M1514.54,-165.11C1523.08,-162.4 1531.67,-159.5 1539.75,-156.5 1549.73,-152.8 1560.36,-148.23 1569.95,-143.87"/>
<polygon fill="black" stroke="black" points="1571.28,-147.11 1578.88,-139.73 1568.33,-140.77 1571.28,-147.11"/>
</g>
<!-- 1438077586320 -->
<g id="node10" class="node">
<title>1438077586320</title>
<polygon fill="none" stroke="black" points="2198.25,-82.5 2198.25,-118.5 2379,-118.5 2379,-82.5 2198.25,-82.5"/>
<text text-anchor="middle" x="2208.12" y="-95.7" font-family="Times New Roman,serif" font-size="14.00"> </text>
<polyline fill="none" stroke="black" points="2218,-83 2218,-118.5"/>
<text text-anchor="middle" x="2257.88" y="-95.7" font-family="Times New Roman,serif" font-size="14.00">data 4.8284</text>
<polyline fill="none" stroke="black" points="2297.75,-83 2297.75,-118.5"/>
<text text-anchor="middle" x="2338.38" y="-95.7" font-family="Times New Roman,serif" font-size="14.00">grad 0.1464</text>
</g>
<!-- 1438103768912* -->
<g id="node28" class="node">
<title>1438103768912*</title>
<ellipse fill="none" stroke="black" cx="2658.75" cy="-72.5" rx="27" ry="18"/>
<text text-anchor="middle" x="2658.75" y="-67.45" font-family="Times New Roman,serif" font-size="14.00">*</text>
</g>
<!-- 1438077586320&#45;&gt;1438103768912* -->
<g id="edge26" class="edge">
<title>1438077586320&#45;&gt;1438103768912*</title>
<path fill="none" stroke="black" d="M2379.38,-93.89C2440.4,-89.36 2522.95,-83.17 2595.75,-77.5 2603.63,-76.89 2612.08,-76.21 2620.12,-75.57"/>
<polygon fill="black" stroke="black" points="2620.31,-79.06 2630,-74.77 2619.75,-72.09 2620.31,-79.06"/>
</g>
<!-- 1438077586320+&#45;&gt;1438077586320 -->
<g id="edge4" class="edge">
<title>1438077586320+&#45;&gt;1438077586320</title>
<path fill="none" stroke="black" d="M1941.5,-100.5C1991.76,-100.5 2103.32,-100.5 2186.28,-100.5"/>
<polygon fill="black" stroke="black" points="2186.27,-104 2196.27,-100.5 2186.27,-97 2186.27,-104"/>
</g>
<!-- 1438076402608 -->
<g id="node12" class="node">
<title>1438076402608</title>
<polygon fill="none" stroke="black" points="2.25,-84.5 2.25,-120.5 195.75,-120.5 195.75,-84.5 2.25,-84.5"/>
<text text-anchor="middle" x="18.5" y="-97.7" font-family="Times New Roman,serif" font-size="14.00">w2</text>
<polyline fill="none" stroke="black" points="34.75,-85 34.75,-120.5"/>
<text text-anchor="middle" x="74.62" y="-97.7" font-family="Times New Roman,serif" font-size="14.00">data 1.0000</text>
<polyline fill="none" stroke="black" points="114.5,-85 114.5,-120.5"/>
<text text-anchor="middle" x="155.12" y="-97.7" font-family="Times New Roman,serif" font-size="14.00">grad 0.0000</text>
</g>
<!-- 1438070867360* -->
<g id="node22" class="node">
<title>1438070867360*</title>
<ellipse fill="none" stroke="black" cx="261" cy="-102.5" rx="27" ry="18"/>
<text text-anchor="middle" x="261" y="-97.45" font-family="Times New Roman,serif" font-size="14.00">*</text>
</g>
<!-- 1438076402608&#45;&gt;1438070867360* -->
<g id="edge20" class="edge">
<title>1438076402608&#45;&gt;1438070867360*</title>
<path fill="none" stroke="black" d="M195.84,-102.5C205.14,-102.5 214.15,-102.5 222.32,-102.5"/>
<polygon fill="black" stroke="black" points="222.13,-106 232.13,-102.5 222.13,-99 222.13,-106"/>
</g>
<!-- 1438076533840 -->
<g id="node13" class="node">
<title>1438076533840</title>
<polygon fill="none" stroke="black" points="1046.25,-28.5 1046.25,-64.5 1227,-64.5 1227,-28.5 1046.25,-28.5"/>
<text text-anchor="middle" x="1056.12" y="-41.7" font-family="Times New Roman,serif" font-size="14.00"> </text>
<polyline fill="none" stroke="black" points="1066,-29 1066,-64.5"/>
<text text-anchor="middle" x="1105.88" y="-41.7" font-family="Times New Roman,serif" font-size="14.00">data 2.0000</text>
<polyline fill="none" stroke="black" points="1145.75,-29 1145.75,-64.5"/>
<text text-anchor="middle" x="1186.38" y="-41.7" font-family="Times New Roman,serif" font-size="14.00">grad 0.2203</text>
</g>
<!-- 1438076533840&#45;&gt;1438068686624* -->
<g id="edge21" class="edge">
<title>1438076533840&#45;&gt;1438068686624*</title>
<path fill="none" stroke="black" d="M1227.44,-62.36C1236.69,-64 1245.68,-65.58 1253.83,-67.02"/>
<polygon fill="black" stroke="black" points="1253.16,-70.46 1263.62,-68.75 1254.38,-63.57 1253.16,-70.46"/>
</g>
<!-- 1438077586512 -->
<g id="node14" class="node">
<title>1438077586512</title>
<polygon fill="none" stroke="black" points="1665.75,-0.5 1665.75,-36.5 1851,-36.5 1851,-0.5 1665.75,-0.5"/>
<text text-anchor="middle" x="1675.62" y="-13.7" font-family="Times New Roman,serif" font-size="14.00"> </text>
<polyline fill="none" stroke="black" points="1685.5,-1 1685.5,-36.5"/>
<text text-anchor="middle" x="1725.38" y="-13.7" font-family="Times New Roman,serif" font-size="14.00">data 1.0000</text>
<polyline fill="none" stroke="black" points="1765.25,-1 1765.25,-36.5"/>
<text text-anchor="middle" x="1808.12" y="-13.7" font-family="Times New Roman,serif" font-size="14.00">grad &#45;0.1036</text>
</g>
<!-- 1438077586512&#45;&gt;1438103570224+ -->
<g id="edge23" class="edge">
<title>1438077586512&#45;&gt;1438103570224+</title>
<path fill="none" stroke="black" d="M1851.4,-34.67C1860.14,-36.21 1868.61,-37.7 1876.33,-39.05"/>
<polygon fill="black" stroke="black" points="1875.45,-42.45 1885.91,-40.74 1876.66,-35.56 1875.45,-42.45"/>
</g>
<!-- 1438077144272 -->
<g id="node15" class="node">
<title>1438077144272</title>
<polygon fill="none" stroke="black" points="3.75,-29.5 3.75,-65.5 194.25,-65.5 194.25,-29.5 3.75,-29.5"/>
<text text-anchor="middle" x="18.5" y="-42.7" font-family="Times New Roman,serif" font-size="14.00">x2</text>
<polyline fill="none" stroke="black" points="33.25,-30 33.25,-65.5"/>
<text text-anchor="middle" x="73.12" y="-42.7" font-family="Times New Roman,serif" font-size="14.00">data 0.0000</text>
<polyline fill="none" stroke="black" points="113,-30 113,-65.5"/>
<text text-anchor="middle" x="153.62" y="-42.7" font-family="Times New Roman,serif" font-size="14.00">grad 0.5000</text>
</g>
<!-- 1438077144272&#45;&gt;1438070867360* -->
<g id="edge19" class="edge">
<title>1438077144272&#45;&gt;1438070867360*</title>
<path fill="none" stroke="black" d="M168.91,-65.94C178.74,-68.93 188.67,-72.15 198,-75.5 207.96,-79.07 218.58,-83.47 228.18,-87.68"/>
<polygon fill="black" stroke="black" points="226.54,-90.78 237.1,-91.67 229.4,-84.39 226.54,-90.78"/>
</g>
<!-- 1438076402912 -->
<g id="node16" class="node">
<title>1438076402912</title>
<polygon fill="none" stroke="black" points="698.25,-56.5 698.25,-92.5 882,-92.5 882,-56.5 698.25,-56.5"/>
<text text-anchor="middle" x="709.62" y="-69.7" font-family="Times New Roman,serif" font-size="14.00">b</text>
<polyline fill="none" stroke="black" points="721,-57 721,-92.5"/>
<text text-anchor="middle" x="760.88" y="-69.7" font-family="Times New Roman,serif" font-size="14.00">data 6.8814</text>
<polyline fill="none" stroke="black" points="800.75,-57 800.75,-92.5"/>
<text text-anchor="middle" x="841.38" y="-69.7" font-family="Times New Roman,serif" font-size="14.00">grad 0.5000</text>
</g>
<!-- 1438076402912&#45;&gt;1438070778704+ -->
<g id="edge14" class="edge">
<title>1438076402912&#45;&gt;1438070778704+</title>
<path fill="none" stroke="black" d="M882.33,-87.49C904.17,-90.6 926.27,-93.74 943.98,-96.26"/>
<polygon fill="black" stroke="black" points="943.32,-99.71 953.71,-97.65 944.3,-92.78 943.32,-99.71"/>
</g>
<!-- 1438069007584 -->
<g id="node17" class="node">
<title>1438069007584</title>
<polygon fill="none" stroke="black" points="1665.75,-110.5 1665.75,-146.5 1851,-146.5 1851,-110.5 1665.75,-110.5"/>
<text text-anchor="middle" x="1675.62" y="-123.7" font-family="Times New Roman,serif" font-size="14.00"> </text>
<polyline fill="none" stroke="black" points="1685.5,-111 1685.5,-146.5"/>
<text text-anchor="middle" x="1727.62" y="-123.7" font-family="Times New Roman,serif" font-size="14.00">data &#45;1.0000</text>
<polyline fill="none" stroke="black" points="1769.75,-111 1769.75,-146.5"/>
<text text-anchor="middle" x="1810.38" y="-123.7" font-family="Times New Roman,serif" font-size="14.00">grad 0.1464</text>
</g>
<!-- 1438069007584&#45;&gt;1438077586320+ -->
<g id="edge16" class="edge">
<title>1438069007584&#45;&gt;1438077586320+</title>
<path fill="none" stroke="black" d="M1851.4,-111.73C1860.14,-110.13 1868.61,-108.59 1876.33,-107.18"/>
<polygon fill="black" stroke="black" points="1876.7,-110.67 1885.91,-105.44 1875.44,-103.79 1876.7,-110.67"/>
</g>
<!-- 1438069007584*&#45;&gt;1438069007584 -->
<g id="edge5" class="edge">
<title>1438069007584*&#45;&gt;1438069007584</title>
<path fill="none" stroke="black" d="M1630.16,-128.5C1637.2,-128.5 1645.25,-128.5 1653.8,-128.5"/>
<polygon fill="black" stroke="black" points="1653.79,-132 1663.79,-128.5 1653.79,-125 1653.79,-132"/>
</g>
<!-- 1438103571808 -->
<g id="node19" class="node">
<title>1438103571808</title>
<polygon fill="none" stroke="black" points="2415,-31.5 2415,-67.5 2595.75,-67.5 2595.75,-31.5 2415,-31.5"/>
<text text-anchor="middle" x="2424.88" y="-44.7" font-family="Times New Roman,serif" font-size="14.00"> </text>
<polyline fill="none" stroke="black" points="2434.75,-32 2434.75,-67.5"/>
<text text-anchor="middle" x="2474.62" y="-44.7" font-family="Times New Roman,serif" font-size="14.00">data 0.1464</text>
<polyline fill="none" stroke="black" points="2514.5,-32 2514.5,-67.5"/>
<text text-anchor="middle" x="2555.12" y="-44.7" font-family="Times New Roman,serif" font-size="14.00">grad 4.8284</text>
</g>
<!-- 1438103571808&#45;&gt;1438103768912* -->
<g id="edge27" class="edge">
<title>1438103571808&#45;&gt;1438103768912*</title>
<path fill="none" stroke="black" d="M2596.18,-63.15C2604.79,-64.45 2613.14,-65.72 2620.78,-66.88"/>
<polygon fill="black" stroke="black" points="2620.21,-70.34 2630.62,-68.38 2621.26,-63.41 2620.21,-70.34"/>
</g>
<!-- 1438103571808**&#45;1 -->
<g id="node20" class="node">
<title>1438103571808**&#45;1</title>
<ellipse fill="none" stroke="black" cx="2288.62" cy="-45.5" rx="27.81" ry="18"/>
<text text-anchor="middle" x="2288.62" y="-40.45" font-family="Times New Roman,serif" font-size="14.00">**&#45;1</text>
</g>
<!-- 1438103571808**&#45;1&#45;&gt;1438103571808 -->
<g id="edge6" class="edge">
<title>1438103571808**&#45;1&#45;&gt;1438103571808</title>
<path fill="none" stroke="black" d="M2316.82,-46.01C2338.93,-46.42 2371.58,-47.03 2403.47,-47.62"/>
<polygon fill="black" stroke="black" points="2403.12,-51.11 2413.18,-47.8 2403.25,-44.12 2403.12,-51.11"/>
</g>
<!-- 1438070867360 -->
<g id="node21" class="node">
<title>1438070867360</title>
<polygon fill="none" stroke="black" points="326.25,-84.5 326.25,-120.5 533.25,-120.5 533.25,-84.5 326.25,-84.5"/>
<text text-anchor="middle" x="349.25" y="-97.7" font-family="Times New Roman,serif" font-size="14.00">x2w2</text>
<polyline fill="none" stroke="black" points="372.25,-85 372.25,-120.5"/>
<text text-anchor="middle" x="412.12" y="-97.7" font-family="Times New Roman,serif" font-size="14.00">data 0.0000</text>
<polyline fill="none" stroke="black" points="452,-85 452,-120.5"/>
<text text-anchor="middle" x="492.62" y="-97.7" font-family="Times New Roman,serif" font-size="14.00">grad 0.5000</text>
</g>
<!-- 1438070867360&#45;&gt;1438077197024+ -->
<g id="edge12" class="edge">
<title>1438070867360&#45;&gt;1438077197024+</title>
<path fill="none" stroke="black" d="M533.51,-119.14C543.16,-120.7 552.45,-122.21 560.82,-123.56"/>
<polygon fill="black" stroke="black" points="560.05,-126.98 570.48,-125.12 561.16,-120.07 560.05,-126.98"/>
</g>
<!-- 1438070867360*&#45;&gt;1438070867360 -->
<g id="edge7" class="edge">
<title>1438070867360*&#45;&gt;1438070867360</title>
<path fill="none" stroke="black" d="M288.42,-102.5C296.08,-102.5 304.96,-102.5 314.47,-102.5"/>
<polygon fill="black" stroke="black" points="314.37,-106 324.37,-102.5 314.37,-99 314.37,-106"/>
</g>
<!-- 1438068686624 -->
<g id="node23" class="node">
<title>1438068686624</title>
<polygon fill="none" stroke="black" points="1356.75,-55.5 1356.75,-91.5 1537.5,-91.5 1537.5,-55.5 1356.75,-55.5"/>
<text text-anchor="middle" x="1366.62" y="-68.7" font-family="Times New Roman,serif" font-size="14.00"> </text>
<polyline fill="none" stroke="black" points="1376.5,-56 1376.5,-91.5"/>
<text text-anchor="middle" x="1416.38" y="-68.7" font-family="Times New Roman,serif" font-size="14.00">data 1.7627</text>
<polyline fill="none" stroke="black" points="1456.25,-56 1456.25,-91.5"/>
<text text-anchor="middle" x="1496.88" y="-68.7" font-family="Times New Roman,serif" font-size="14.00">grad 0.2500</text>
</g>
<!-- 1438068686624&#45;&gt;1438077670160exp -->
<g id="edge29" class="edge">
<title>1438068686624&#45;&gt;1438077670160exp</title>
<path fill="none" stroke="black" d="M1537.93,-73.5C1547.11,-73.5 1556.03,-73.5 1564.15,-73.5"/>
<polygon fill="black" stroke="black" points="1563.9,-77 1573.9,-73.5 1563.9,-70 1563.9,-77"/>
</g>
<!-- 1438068686624*&#45;&gt;1438068686624 -->
<g id="edge8" class="edge">
<title>1438068686624*&#45;&gt;1438068686624</title>
<path fill="none" stroke="black" d="M1318.91,-73.5C1326.62,-73.5 1335.54,-73.5 1345.01,-73.5"/>
<polygon fill="black" stroke="black" points="1344.82,-77 1354.82,-73.5 1344.82,-70 1344.82,-77"/>
</g>
<!-- 1438103570224 -->
<g id="node25" class="node">
<title>1438103570224</title>
<polygon fill="none" stroke="black" points="1977,-27.5 1977,-63.5 2162.25,-63.5 2162.25,-27.5 1977,-27.5"/>
<text text-anchor="middle" x="1986.88" y="-40.7" font-family="Times New Roman,serif" font-size="14.00"> </text>
<polyline fill="none" stroke="black" points="1996.75,-28 1996.75,-63.5"/>
<text text-anchor="middle" x="2036.62" y="-40.7" font-family="Times New Roman,serif" font-size="14.00">data 6.8284</text>
<polyline fill="none" stroke="black" points="2076.5,-28 2076.5,-63.5"/>
<text text-anchor="middle" x="2119.38" y="-40.7" font-family="Times New Roman,serif" font-size="14.00">grad &#45;0.1036</text>
</g>
<!-- 1438103570224&#45;&gt;1438103571808**&#45;1 -->
<g id="edge24" class="edge">
<title>1438103570224&#45;&gt;1438103571808**&#45;1</title>
<path fill="none" stroke="black" d="M2162.65,-45.5C2192.89,-45.5 2224.88,-45.5 2248.92,-45.5"/>
<polygon fill="black" stroke="black" points="2248.87,-49 2258.87,-45.5 2248.87,-42 2248.87,-49"/>
</g>
<!-- 1438103570224+&#45;&gt;1438103570224 -->
<g id="edge9" class="edge">
<title>1438103570224+&#45;&gt;1438103570224</title>
<path fill="none" stroke="black" d="M1941.41,-45.5C1948.45,-45.5 1956.5,-45.5 1965.05,-45.5"/>
<polygon fill="black" stroke="black" points="1965.04,-49 1975.04,-45.5 1965.04,-42 1965.04,-49"/>
</g>
<!-- 1438103768912 -->
<g id="node27" class="node">
<title>1438103768912</title>
<polygon fill="none" stroke="black" points="2721.75,-54.5 2721.75,-90.5 2905.5,-90.5 2905.5,-54.5 2721.75,-54.5"/>
<text text-anchor="middle" x="2733.12" y="-67.7" font-family="Times New Roman,serif" font-size="14.00">o</text>
<polyline fill="none" stroke="black" points="2744.5,-55 2744.5,-90.5"/>
<text text-anchor="middle" x="2784.38" y="-67.7" font-family="Times New Roman,serif" font-size="14.00">data 0.7071</text>
<polyline fill="none" stroke="black" points="2824.25,-55 2824.25,-90.5"/>
<text text-anchor="middle" x="2864.88" y="-67.7" font-family="Times New Roman,serif" font-size="14.00">grad 1.0000</text>
</g>
<!-- 1438103768912*&#45;&gt;1438103768912 -->
<g id="edge10" class="edge">
<title>1438103768912*&#45;&gt;1438103768912</title>
<path fill="none" stroke="black" d="M2686.03,-72.5C2693.17,-72.5 2701.36,-72.5 2710.07,-72.5"/>
<polygon fill="black" stroke="black" points="2709.81,-76 2719.81,-72.5 2709.81,-69 2709.81,-76"/>
</g>
<!-- 1438077144912 -->
<g id="node29" class="node">
<title>1438077144912</title>
<polygon fill="none" stroke="black" points="0,-139.5 0,-175.5 198,-175.5 198,-139.5 0,-139.5"/>
<text text-anchor="middle" x="16.25" y="-152.7" font-family="Times New Roman,serif" font-size="14.00">w1</text>
<polyline fill="none" stroke="black" points="32.5,-140 32.5,-175.5"/>
<text text-anchor="middle" x="74.62" y="-152.7" font-family="Times New Roman,serif" font-size="14.00">data &#45;3.0000</text>
<polyline fill="none" stroke="black" points="116.75,-140 116.75,-175.5"/>
<text text-anchor="middle" x="157.38" y="-152.7" font-family="Times New Roman,serif" font-size="14.00">grad 1.0000</text>
</g>
<!-- 1438077144912&#45;&gt;1438068469648* -->
<g id="edge31" class="edge">
<title>1438077144912&#45;&gt;1438068469648*</title>
<path fill="none" stroke="black" d="M198.14,-157.5C206.61,-157.5 214.8,-157.5 222.29,-157.5"/>
<polygon fill="black" stroke="black" points="222.29,-161 232.29,-157.5 222.29,-154 222.29,-161"/>
</g>
<!-- 1438068469648 -->
<g id="node30" class="node">
<title>1438068469648</title>
<polygon fill="none" stroke="black" points="324,-139.5 324,-175.5 535.5,-175.5 535.5,-139.5 324,-139.5"/>
<text text-anchor="middle" x="347" y="-152.7" font-family="Times New Roman,serif" font-size="14.00">x1w1</text>
<polyline fill="none" stroke="black" points="370,-140 370,-175.5"/>
<text text-anchor="middle" x="412.12" y="-152.7" font-family="Times New Roman,serif" font-size="14.00">data &#45;6.0000</text>
<polyline fill="none" stroke="black" points="454.25,-140 454.25,-175.5"/>
<text text-anchor="middle" x="494.88" y="-152.7" font-family="Times New Roman,serif" font-size="14.00">grad 0.5000</text>
</g>
<!-- 1438068469648&#45;&gt;1438077197024+ -->
<g id="edge18" class="edge">
<title>1438068469648&#45;&gt;1438077197024+</title>
<path fill="none" stroke="black" d="M535.88,-139.85C544.59,-138.38 552.96,-136.98 560.56,-135.7"/>
<polygon fill="black" stroke="black" points="561.06,-139.17 570.34,-134.06 559.9,-132.26 561.06,-139.17"/>
</g>
<!-- 1438068469648*&#45;&gt;1438068469648 -->
<g id="edge11" class="edge">
<title>1438068469648*&#45;&gt;1438068469648</title>
<path fill="none" stroke="black" d="M288.42,-157.5C295.52,-157.5 303.68,-157.5 312.42,-157.5"/>
<polygon fill="black" stroke="black" points="312.24,-161 322.24,-157.5 312.24,-154 312.24,-161"/>
</g>
</g>
</svg>
